<svg id="visual" viewBox="0 0 1400 300" width="1400" height="300" xmlns="http://www.w3.org/2000/svg" xmlns:xlink="http://www.w3.org/1999/xlink" version="1.1"><rect x="0" y="0" width="1400" height="300" fill="#000"></rect><path d="M0 210L200 221L400 211L600 208L800 241L1000 219L1200 237L1400 208L1400 301L1200 301L1000 301L800 301L600 301L400 301L200 301L0 301Z" fill="#ddd6cf"></path><path d="M0 252L200 239L400 261L600 242L800 239L1000 237L1200 256L1400 232L1400 301L1200 301L1000 301L800 301L600 301L400 301L200 301L0 301Z" fill="#eeeae7"></path><path d="M0 259L200 275L400 266L600 268L800 265L1000 265L1200 270L1400 270L1400 301L1200 301L1000 301L800 301L600 301L400 301L200 301L0 301Z" fill="#ffffff"></path></svg>