<svg id="visual" viewBox="0 0 1400 300" width="1400" height="300" xmlns="http://www.w3.org/2000/svg" xmlns:xlink="http://www.w3.org/1999/xlink" version="1.1"><path d="M0 79L11.2 81C22.3 83 44.7 87 66.8 93.5C89 100 111 109 133.2 117C155.3 125 177.7 132 200 136.5C222.3 141 244.7 143 266.8 146.5C289 150 311 155 333.2 151C355.3 147 377.7 134 400 119.5C422.3 105 444.7 89 466.8 89.5C489 90 511 107 533.2 110.5C555.3 114 577.7 104 600 108.5C622.3 113 644.7 132 666.8 135.5C689 139 711 127 733.2 126C755.3 125 777.7 135 800 141.5C822.3 148 844.7 151 866.8 148.5C889 146 911 138 933.2 133.5C955.3 129 977.7 128 1000 119.5C1022.3 111 1044.7 95 1066.8 92C1089 89 1111 99 1133.2 101C1155.3 103 1177.7 97 1200 90.5C1222.3 84 1244.7 77 1266.8 80.5C1289 84 1311 98 1333.2 102.5C1355.3 107 1377.7 102 1388.8 99.5L1400 97L1400 0L1388.8 0C1377.7 0 1355.3 0 1333.2 0C1311 0 1289 0 1266.8 0C1244.7 0 1222.3 0 1200 0C1177.7 0 1155.3 0 1133.2 0C1111 0 1089 0 1066.8 0C1044.7 0 1022.3 0 1000 0C977.7 0 955.3 0 933.2 0C911 0 889 0 866.8 0C844.7 0 822.3 0 800 0C777.7 0 755.3 0 733.2 0C711 0 689 0 666.8 0C644.7 0 622.3 0 600 0C577.7 0 555.3 0 533.2 0C511 0 489 0 466.8 0C444.7 0 422.3 0 400 0C377.7 0 355.3 0 333.2 0C311 0 289 0 266.8 0C244.7 0 222.3 0 200 0C177.7 0 155.3 0 133.2 0C111 0 89 0 66.8 0C44.7 0 22.3 0 11.2 0L0 0Z" fill="#000000"></path><path d="M0 172L11.2 168.5C22.3 165 44.7 158 66.8 161C89 164 111 177 133.2 186.5C155.3 196 177.7 202 200 206C222.3 210 244.7 212 266.8 211.5C289 211 311 208 333.2 203.5C355.3 199 377.7 193 400 185.5C422.3 178 444.7 169 466.8 175C489 181 511 202 533.2 207.5C555.3 213 577.7 203 600 202C622.3 201 644.7 209 666.8 209.5C689 210 711 203 733.2 200C755.3 197 777.7 198 800 203C822.3 208 844.7 217 866.8 222C889 227 911 228 933.2 219C955.3 210 977.7 191 1000 179C1022.3 167 1044.7 162 1066.8 159C1089 156 1111 155 1133.2 155C1155.3 155 1177.7 156 1200 159C1222.3 162 1244.7 167 1266.8 175.5C1289 184 1311 196 1333.2 199.5C1355.3 203 1377.7 198 1388.8 195.5L1400 193L1400 95L1388.8 97.5C1377.7 100 1355.3 105 1333.2 100.5C1311 96 1289 82 1266.8 78.5C1244.7 75 1222.3 82 1200 88.5C1177.7 95 1155.3 101 1133.2 99C1111 97 1089 87 1066.8 90C1044.7 93 1022.3 109 1000 117.5C977.7 126 955.3 127 933.2 131.5C911 136 889 144 866.8 146.5C844.7 149 822.3 146 800 139.5C777.7 133 755.3 123 733.2 124C711 125 689 137 666.8 133.5C644.7 130 622.3 111 600 106.5C577.7 102 555.3 112 533.2 108.5C511 105 489 88 466.8 87.5C444.7 87 422.3 103 400 117.5C377.7 132 355.3 145 333.2 149C311 153 289 148 266.8 144.5C244.7 141 222.3 139 200 134.5C177.7 130 155.3 123 133.2 115C111 107 89 98 66.8 91.5C44.7 85 22.3 81 11.2 79L0 77Z" fill="#74747a"></path><path d="M0 301L11.2 301C22.3 301 44.7 301 66.8 301C89 301 111 301 133.2 301C155.3 301 177.7 301 200 301C222.3 301 244.7 301 266.8 301C289 301 311 301 333.2 301C355.3 301 377.7 301 400 301C422.3 301 444.7 301 466.8 301C489 301 511 301 533.2 301C555.3 301 577.7 301 600 301C622.3 301 644.7 301 666.8 301C689 301 711 301 733.2 301C755.3 301 777.7 301 800 301C822.3 301 844.7 301 866.8 301C889 301 911 301 933.2 301C955.3 301 977.7 301 1000 301C1022.3 301 1044.7 301 1066.8 301C1089 301 1111 301 1133.2 301C1155.3 301 1177.7 301 1200 301C1222.3 301 1244.7 301 1266.8 301C1289 301 1311 301 1333.2 301C1355.3 301 1377.7 301 1388.8 301L1400 301L1400 191L1388.8 193.5C1377.7 196 1355.3 201 1333.2 197.5C1311 194 1289 182 1266.8 173.5C1244.7 165 1222.3 160 1200 157C1177.7 154 1155.3 153 1133.2 153C1111 153 1089 154 1066.8 157C1044.7 160 1022.3 165 1000 177C977.7 189 955.3 208 933.2 217C911 226 889 225 866.8 220C844.7 215 822.3 206 800 201C777.7 196 755.3 195 733.2 198C711 201 689 208 666.8 207.5C644.7 207 622.3 199 600 200C577.7 201 555.3 211 533.2 205.5C511 200 489 179 466.8 173C444.7 167 422.3 176 400 183.5C377.7 191 355.3 197 333.2 201.5C311 206 289 209 266.8 209.5C244.7 210 222.3 208 200 204C177.7 200 155.3 194 133.2 184.5C111 175 89 162 66.8 159C44.7 156 22.3 163 11.2 166.5L0 170Z" fill="#f8f8ff"></path></svg>