<svg id="visual" viewBox="0 0 1400 300" width="1400" height="300" xmlns="http://www.w3.org/2000/svg" xmlns:xlink="http://www.w3.org/1999/xlink" version="1.1"><path d="M0 136L11.2 129C22.3 122 44.7 108 66.8 107C89 106 111 118 133.2 124.5C155.3 131 177.7 132 200 135C222.3 138 244.7 143 266.8 132C289 121 311 94 333.2 81.5C355.3 69 377.7 71 400 80C422.3 89 444.7 105 466.8 116C489 127 511 133 533.2 126C555.3 119 577.7 99 600 96C622.3 93 644.7 107 666.8 113.5C689 120 711 119 733.2 122.5C755.3 126 777.7 134 800 132.5C822.3 131 844.7 120 866.8 119C889 118 911 127 933.2 122.5C955.3 118 977.7 100 1000 90C1022.3 80 1044.7 78 1066.8 75C1089 72 1111 68 1133.2 67.5C1155.3 67 1177.7 70 1200 77C1222.3 84 1244.7 95 1266.8 109C1289 123 1311 140 1333.2 136.5C1355.3 133 1377.7 109 1388.8 97L1400 85L1400 0L1388.8 0C1377.7 0 1355.3 0 1333.2 0C1311 0 1289 0 1266.8 0C1244.7 0 1222.3 0 1200 0C1177.7 0 1155.3 0 1133.2 0C1111 0 1089 0 1066.8 0C1044.7 0 1022.3 0 1000 0C977.7 0 955.3 0 933.2 0C911 0 889 0 866.8 0C844.7 0 822.3 0 800 0C777.7 0 755.3 0 733.2 0C711 0 689 0 666.8 0C644.7 0 622.3 0 600 0C577.7 0 555.3 0 533.2 0C511 0 489 0 466.8 0C444.7 0 422.3 0 400 0C377.7 0 355.3 0 333.2 0C311 0 289 0 266.8 0C244.7 0 222.3 0 200 0C177.7 0 155.3 0 133.2 0C111 0 89 0 66.8 0C44.7 0 22.3 0 11.2 0L0 0Z" fill="#fffff0"></path><path d="M0 181L11.2 179.5C22.3 178 44.7 175 66.8 183C89 191 111 210 133.2 220C155.3 230 177.7 231 200 226C222.3 221 244.7 210 266.8 198C289 186 311 173 333.2 166.5C355.3 160 377.7 160 400 169.5C422.3 179 444.7 198 466.8 202C489 206 511 195 533.2 189C555.3 183 577.7 182 600 179C622.3 176 644.7 171 666.8 174.5C689 178 711 190 733.2 200C755.3 210 777.7 218 800 210C822.3 202 844.7 178 866.8 177.5C889 177 911 200 933.2 201C955.3 202 977.7 181 1000 167.5C1022.3 154 1044.7 148 1066.8 148C1089 148 1111 154 1133.2 152.5C1155.3 151 1177.7 142 1200 144.5C1222.3 147 1244.7 161 1266.8 173C1289 185 1311 195 1333.2 193C1355.3 191 1377.7 177 1388.8 170L1400 163L1400 83L1388.8 95C1377.7 107 1355.3 131 1333.2 134.5C1311 138 1289 121 1266.8 107C1244.7 93 1222.3 82 1200 75C1177.7 68 1155.3 65 1133.2 65.5C1111 66 1089 70 1066.8 73C1044.7 76 1022.3 78 1000 88C977.7 98 955.3 116 933.2 120.5C911 125 889 116 866.8 117C844.7 118 822.3 129 800 130.5C777.7 132 755.3 124 733.2 120.5C711 117 689 118 666.8 111.5C644.7 105 622.3 91 600 94C577.7 97 555.3 117 533.2 124C511 131 489 125 466.8 114C444.7 103 422.3 87 400 78C377.7 69 355.3 67 333.2 79.5C311 92 289 119 266.8 130C244.7 141 222.3 136 200 133C177.7 130 155.3 129 133.2 122.5C111 116 89 104 66.8 105C44.7 106 22.3 120 11.2 127L0 134Z" fill="#fff8f8"></path><path d="M0 301L11.2 301C22.3 301 44.7 301 66.8 301C89 301 111 301 133.2 301C155.3 301 177.7 301 200 301C222.3 301 244.7 301 266.8 301C289 301 311 301 333.2 301C355.3 301 377.7 301 400 301C422.3 301 444.7 301 466.8 301C489 301 511 301 533.2 301C555.3 301 577.7 301 600 301C622.3 301 644.7 301 666.8 301C689 301 711 301 733.2 301C755.3 301 777.7 301 800 301C822.3 301 844.7 301 866.8 301C889 301 911 301 933.2 301C955.3 301 977.7 301 1000 301C1022.3 301 1044.7 301 1066.8 301C1089 301 1111 301 1133.2 301C1155.3 301 1177.7 301 1200 301C1222.3 301 1244.7 301 1266.8 301C1289 301 1311 301 1333.2 301C1355.3 301 1377.7 301 1388.8 301L1400 301L1400 161L1388.8 168C1377.7 175 1355.3 189 1333.2 191C1311 193 1289 183 1266.8 171C1244.7 159 1222.3 145 1200 142.5C1177.7 140 1155.3 149 1133.2 150.5C1111 152 1089 146 1066.8 146C1044.7 146 1022.3 152 1000 165.5C977.7 179 955.3 200 933.2 199C911 198 889 175 866.8 175.5C844.7 176 822.3 200 800 208C777.7 216 755.3 208 733.2 198C711 188 689 176 666.8 172.5C644.7 169 622.3 174 600 177C577.7 180 555.3 181 533.2 187C511 193 489 204 466.8 200C444.7 196 422.3 177 400 167.5C377.7 158 355.3 158 333.2 164.5C311 171 289 184 266.8 196C244.7 208 222.3 219 200 224C177.7 229 155.3 228 133.2 218C111 208 89 189 66.8 181C44.7 173 22.3 176 11.2 177.5L0 179Z" fill="#f8f8ff"></path></svg>