<svg id="visual" viewBox="0 0 960 300" width="960" height="300" xmlns="http://www.w3.org/2000/svg" xmlns:xlink="http://www.w3.org/1999/xlink" version="1.1"><rect x="0" y="0" width="960" height="300" fill="#fff"></rect><path d="M0 58L10 58.5C20 59 40 60 60 59.5C80 59 100 57 120 51.8C140 46.7 160 38.3 180 37.3C200 36.3 220 42.7 240 47.5C260 52.3 280 55.7 300 57.2C320 58.7 340 58.3 360 54.7C380 51 400 44 420 41.2C440 38.3 460 39.7 480 42.8C500 46 520 51 540 52.5C560 54 580 52 600 49.2C620 46.3 640 42.7 660 43.2C680 43.7 700 48.3 720 48.2C740 48 760 43 780 43.3C800 43.7 820 49.3 840 48.8C860 48.3 880 41.7 900 38.5C920 35.3 940 35.7 950 35.8L960 36L960 0L950 0C940 0 920 0 900 0C880 0 860 0 840 0C820 0 800 0 780 0C760 0 740 0 720 0C700 0 680 0 660 0C640 0 620 0 600 0C580 0 560 0 540 0C520 0 500 0 480 0C460 0 440 0 420 0C400 0 380 0 360 0C340 0 320 0 300 0C280 0 260 0 240 0C220 0 200 0 180 0C160 0 140 0 120 0C100 0 80 0 60 0C40 0 20 0 10 0L0 0Z" fill="#000" stroke-linecap="round" stroke-linejoin="miter"></path></svg>